<?xml version="1.0" encoding="iso-8859-1"?>
<!-- Generator: Adobe Illustrator 19.0.0, SVG Export Plug-In . SVG Version: 6.00 Build 0)  -->
<svg xmlns="http://www.w3.org/2000/svg" xmlns:xlink="http://www.w3.org/1999/xlink" version="1.1" id="Layer_1" x="0px" y="0px" viewBox="0 0 512 512" style="enable-background:new 0 0 512 512;" xml:space="preserve" width="512px" height="512px">
<g>
	<g>
		<path d="M256,0c-25.916,0-47,21.084-47,47v64c0,25.916,21.084,47,47,47s47-21.084,47-47V47C303,21.084,281.916,0,256,0z M273,111    c0,9.374-7.626,17-17,17c-9.374,0-17-7.626-17-17V47c0-9.374,7.626-17,17-17c9.374,0,17,7.626,17,17V111z" fill="#5c1bb7"/>
	</g>
</g>
<g>
	<g>
		<path d="M256,354c-25.916,0-47,21.084-47,47v64c0,25.916,21.084,47,47,47s47-21.084,47-47v-64C303,375.084,281.916,354,256,354z     M273,465c0,9.374-7.626,17-17,17c-9.374,0-17-7.626-17-17v-64c0-9.374,7.626-17,17-17c9.374,0,17,7.626,17,17V465z" fill="#5c1bb7"/>
	</g>
</g>
<g>
	<g>
		<path d="M111,209H47c-25.916,0-47,21.084-47,47s21.084,47,47,47h64c25.916,0,47-21.084,47-47S136.916,209,111,209z M111,273H47    c-9.374,0-17-7.626-17-17c0-9.374,7.626-17,17-17h64c9.374,0,17,7.626,17,17C128,265.374,120.374,273,111,273z" fill="#5c1bb7"/>
	</g>
</g>
<g>
	<g>
		<path d="M465,209h-64c-25.916,0-47,21.084-47,47s21.084,47,47,47h64c25.916,0,47-21.084,47-47S490.916,209,465,209z M465,273h-64    c-9.374,0-17-7.626-17-17c0-9.374,7.626-17,17-17h64c9.374,0,17,7.626,17,17C482,265.374,474.374,273,465,273z" fill="#5c1bb7"/>
	</g>
</g>
<g>
	<g>
		<path d="M186.702,325.296c-8.876-8.877-20.679-13.766-33.233-13.766c-12.554,0-24.357,4.889-33.234,13.766l-45.256,45.255    c-18.323,18.325-18.323,48.143,0.001,66.467c8.877,8.877,20.68,13.767,33.234,13.767c12.554,0,24.357-4.889,33.233-13.767    l45.255-45.254c8.877-8.877,13.767-20.68,13.767-33.234C200.469,345.976,195.579,334.173,186.702,325.296z M165.491,370.552    l-45.256,45.255c-3.21,3.21-7.479,4.979-12.02,4.979c-4.541,0-8.811-1.769-12.021-4.979c-6.628-6.628-6.628-17.414,0-24.042    l45.255-45.254c3.211-3.211,7.48-4.979,12.021-4.979c4.541,0,8.81,1.768,12.021,4.979v0.001c3.21,3.209,4.979,7.478,4.979,12.019    C170.47,363.072,168.701,367.341,165.491,370.552z" fill="#5c1bb7"/>
	</g>
</g>
<g>
	<g>
		<path d="M437.019,74.981c-8.876-8.877-20.679-13.767-33.234-13.767s-24.357,4.889-33.233,13.767l-45.255,45.254    c-8.877,8.877-13.767,20.68-13.767,33.234s4.89,24.357,13.767,33.234c8.876,8.877,20.679,13.766,33.233,13.766    c12.554,0,24.357-4.889,33.234-13.766l45.256-45.255C455.343,123.123,455.343,93.305,437.019,74.981z M415.807,120.236    l-45.255,45.254c-3.211,3.211-7.48,4.979-12.021,4.979c-4.541,0-8.81-1.769-12.021-4.98c-3.211-3.21-4.979-7.479-4.979-12.021    c0-4.541,1.769-8.81,4.979-12.021l45.256-45.255c3.21-3.21,7.479-4.979,12.02-4.979c4.541,0,8.811,1.769,12.021,4.979    C422.435,102.822,422.435,113.607,415.807,120.236z" fill="#5c1bb7"/>
	</g>
</g>
<g>
	<g>
		<path d="M437.019,370.55l-45.255-45.255c-8.877-8.877-20.681-13.766-33.234-13.766c-12.555,0-24.357,4.889-33.233,13.766    c-8.877,8.877-13.767,20.68-13.767,33.234c0,12.556,4.89,24.359,13.767,33.235l45.254,45.254    c8.877,8.878,20.68,13.767,33.234,13.767s24.357-4.889,33.234-13.767C455.343,418.693,455.343,388.876,437.019,370.55z     M415.807,415.805c-3.211,3.211-7.48,4.979-12.021,4.979c-4.541,0-8.81-1.769-12.021-4.979L346.51,370.55    c-3.211-3.21-4.979-7.479-4.979-12.02c-0.001-4.54,1.768-8.809,4.979-12.02c3.211-3.212,7.479-4.98,12.021-4.98    s8.811,1.769,12.021,4.979l45.254,45.254C422.435,398.392,422.435,409.177,415.807,415.805z" fill="#5c1bb7"/>
	</g>
</g>
<g>
	<g>
		<path d="M186.703,120.236l-45.254-45.254c-8.877-8.878-20.68-13.767-33.234-13.767c-12.554,0-24.358,4.889-33.235,13.766    c-18.324,18.325-18.324,48.142,0,66.468l45.255,45.255c8.877,8.877,20.681,13.766,33.234,13.766    c12.555,0,24.357-4.889,33.233-13.766c8.877-8.877,13.767-20.68,13.767-33.234C200.47,140.915,195.58,129.112,186.703,120.236z     M165.49,165.491c-3.211,3.211-7.479,4.979-12.021,4.979s-8.811-1.769-12.021-4.979l-45.254-45.254    c-6.629-6.629-6.629-17.414-0.001-24.042c3.211-3.211,7.48-4.979,12.021-4.979c4.541,0,8.81,1.769,12.021,4.979l45.255,45.255    c3.211,3.21,4.979,7.479,4.979,12.021C170.47,158.01,168.701,162.279,165.49,165.491z" fill="#5c1bb7"/>
	</g>
</g>
<g>
</g>
<g>
</g>
<g>
</g>
<g>
</g>
<g>
</g>
<g>
</g>
<g>
</g>
<g>
</g>
<g>
</g>
<g>
</g>
<g>
</g>
<g>
</g>
<g>
</g>
<g>
</g>
<g>
</g>
</svg>
