<?xml version="1.0"?>
<svg xmlns="http://www.w3.org/2000/svg" height="512px" viewBox="-91 0 512 512" width="512px"><path d="m45 0c-24.8125 0-45 20.1875-45 45v422c0 24.8125 20.1875 45 45 45h240c24.8125 0 45-20.1875 45-45v-422c0-24.8125-20.1875-45-45-45zm255 392h-270v-302h270zm-15 90h-240c-8.269531 0-15-6.730469-15-15v-45h120v15c0 8.285156 6.714844 15 15 15s15-6.714844 15-15v-15h120v45c0 8.269531-6.730469 15-15 15zm15-437v15h-270v-15c0-8.269531 6.730469-15 15-15h240c8.269531 0 15 6.730469 15 15zm0 0" fill="#5c1bb7"/></svg>
