<?xml version="1.0" encoding="iso-8859-1"?>
<!-- Generator: Adobe Illustrator 16.0.0, SVG Export Plug-In . SVG Version: 6.00 Build 0)  -->
<!DOCTYPE svg PUBLIC "-//W3C//DTD SVG 1.1//EN" "http://www.w3.org/Graphics/SVG/1.1/DTD/svg11.dtd">
<svg xmlns="http://www.w3.org/2000/svg" xmlns:xlink="http://www.w3.org/1999/xlink" version="1.1" id="Capa_1" x="0px" y="0px" width="512px" height="512px" viewBox="0 0 485.212 485.212" style="enable-background:new 0 0 485.212 485.212;" xml:space="preserve">
<g>
	<g>
		<path d="M210.948,90.978c9.771-38.707,22.715-60.651,31.657-60.651s21.889,21.944,31.656,60.651h31.452    C293.392,38.027,272.278,0,242.605,0c-29.643,0-50.787,38.027-63.08,90.978H210.948z" fill="#5c1bb7"/>
		<path d="M394.234,121.304h-82.687c3.229,20.612,5.357,42.529,6.276,64.886c9.241,5.181,15.761,14.718,15.761,26.091    c0,16.762-13.566,30.324-30.331,30.324c-16.76,0-30.322-13.562-30.322-30.324c0-10.748,5.923-19.753,14.361-25.113    c-1.009-24.493-3.379-46.557-6.632-65.864h-76.111c-3.227,19.308-5.598,41.343-6.604,65.834    c8.407,5.39,14.335,14.396,14.335,25.144c0,16.762-13.565,30.324-30.327,30.324s-30.327-13.562-30.327-30.324    c0-11.374,6.515-20.911,15.756-26.091c0.919-22.357,3.05-44.274,6.279-64.886H90.976L30.325,485.212h424.562L394.234,121.304z" fill="#5c1bb7"/>
	</g>
</g>
<g>
</g>
<g>
</g>
<g>
</g>
<g>
</g>
<g>
</g>
<g>
</g>
<g>
</g>
<g>
</g>
<g>
</g>
<g>
</g>
<g>
</g>
<g>
</g>
<g>
</g>
<g>
</g>
<g>
</g>
</svg>
